<svg width="90" height="90" viewBox="0 0 90 90" fill="none" xmlns="http://www.w3.org/2000/svg">
<g clip-path="url(#clip0_4_110)">
<path d="M83.3213 44.19L44.19 83.3212C43.5156 84.0668 43.1535 85.0431 43.1787 86.0481C43.2039 87.0532 43.6144 88.0101 44.3252 88.721C45.0361 89.4319 45.9931 89.8424 46.9981 89.8675C48.0031 89.8927 48.9794 89.5307 49.725 88.8563L88.8563 49.725C89.5307 48.9794 89.8927 48.0031 89.8676 46.9981C89.8424 45.9931 89.4319 45.0361 88.721 44.3252C88.0101 43.6144 87.0532 43.2039 86.0481 43.1787C85.0431 43.1535 84.0668 43.5156 83.3213 44.19ZM75.495 1.14375L1.14375 75.495C0.469341 76.2406 0.107282 77.2169 0.132456 78.2219C0.157629 79.2269 0.56811 80.1839 1.279 80.8948C1.98989 81.6056 2.94681 82.0161 3.95185 82.0413C4.95689 82.0665 5.93316 81.7044 6.67875 81.03L81.03 6.67875C81.7044 5.93316 82.0665 4.95689 82.0413 3.95185C82.0161 2.94681 81.6057 1.98989 80.8948 1.279C80.1839 0.568106 79.2269 0.157625 78.2219 0.132452C77.2169 0.107278 76.2406 0.469337 75.495 1.14375Z" fill="white"/>
</g>
<defs>
<clipPath id="clip0_4_110">
<rect width="90" height="90" fill="white"/>
</clipPath>
</defs>
</svg>
